<svg id="visual" viewBox="0 0 900 600" width="900" height="600" xmlns="http://www.w3.org/2000/svg" xmlns:xlink="http://www.w3.org/1999/xlink" version="1.1"><rect x="0" y="0" width="900" height="600" fill="#222222"></rect><g fill="none" stroke="#FBAE3C" stroke-width="4"><path d="M32.7 18.9L32.7 84.2L-32.7 84.2L-32.7 18.9L-89.2 -13.8L-56.6 -70.4L0 -37.7L56.6 -70.4L89.2 -13.8Z" transform="translate(516 49)"></path><path d="M10.3 5.9L10.3 26.4L-10.3 26.4L-10.3 5.9L-28 -4.3L-17.8 -22.1L0 -11.8L17.8 -22.1L28 -4.3Z" transform="translate(342 536)"></path><path d="M11.9 6.9L11.9 30.6L-11.9 30.6L-11.9 6.9L-32.4 -5L-20.6 -25.6L0 -13.7L20.6 -25.6L32.4 -5Z" transform="translate(85 124)"></path><path d="M10.8 6.2L10.8 27.8L-10.8 27.8L-10.8 6.2L-29.5 -4.6L-18.7 -23.3L0 -12.5L18.7 -23.3L29.5 -4.6Z" transform="translate(750 203)"></path><path d="M18.1 10.4L18.1 46.6L-18.1 46.6L-18.1 10.4L-49.4 -7.6L-31.3 -39L0 -20.9L31.3 -39L49.4 -7.6Z" transform="translate(345 286)"></path><path d="M21.9 12.6L21.9 56.3L-21.9 56.3L-21.9 12.6L-59.7 -9.2L-37.9 -47.1L0 -25.2L37.9 -47.1L59.7 -9.2Z" transform="translate(58 372)"></path><path d="M29.1 16.8L29.1 75.1L-29.1 75.1L-29.1 16.8L-79.6 -12.3L-50.5 -62.8L0 -33.7L50.5 -62.8L79.6 -12.3Z" transform="translate(757 488)"></path></g></svg>